<svg width="600" height="900" viewBox="0 0 600 900" fill="none" xmlns="http://www.w3.org/2000/svg" role="img" aria-labelledby="title desc">
  <title id="title">PlayNext example game cover</title>
  <desc id="desc">Original neon game cover artwork with a handheld console, cards, and discovery symbols.</desc>
  <rect width="600" height="900" fill="#09090b"/>
  <rect x="34" y="34" width="532" height="832" rx="38" fill="#11151b" stroke="#35404b" stroke-width="3"/>
  <path d="M72 644C128 534 214 544 268 442C328 328 412 288 528 236V866H72V644Z" fill="#0f2b29"/>
  <path d="M72 720C158 624 238 680 318 570C396 462 454 448 528 410V866H72V720Z" fill="#16241b"/>
  <circle cx="458" cy="180" r="86" fill="#67e8f9" opacity=".22"/>
  <circle cx="164" cy="250" r="58" fill="#a3e635" opacity=".28"/>
  <rect x="112" y="218" width="376" height="262" rx="32" fill="#202833" stroke="#586473" stroke-width="5"/>
  <rect x="156" y="260" width="288" height="176" rx="18" fill="#0b0f14"/>
  <path d="M156 392L228 320L278 366L326 304L444 420V436H156V392Z" fill="#22d3ee" opacity=".32"/>
  <circle cx="330" cy="306" r="24" fill="#bef264" opacity=".8"/>
  <circle cx="158" cy="349" r="22" fill="#0f141b" stroke="#6b7280" stroke-width="6"/>
  <circle cx="442" cy="349" r="22" fill="#0f141b" stroke="#6b7280" stroke-width="6"/>
  <rect x="128" y="548" width="344" height="54" rx="18" fill="#34d399"/>
  <path d="M176 575L214 613L272 530" stroke="#062014" stroke-width="18" stroke-linecap="round" stroke-linejoin="round"/>
  <rect x="128" y="632" width="168" height="40" rx="12" fill="#1f2937" stroke="#3f4652"/>
  <rect x="320" y="632" width="152" height="40" rx="12" fill="#1f2937" stroke="#3f4652"/>
  <rect x="128" y="706" width="248" height="16" rx="8" fill="#e5e7eb"/>
  <rect x="128" y="738" width="314" height="12" rx="6" fill="#9ca3af"/>
  <rect x="128" y="764" width="206" height="12" rx="6" fill="#64748b"/>
  <text x="126" y="154" fill="#f8fafc" font-family="Inter, Arial, sans-serif" font-size="56" font-weight="900">PlayNext</text>
  <text x="130" y="190" fill="#a7f3d0" font-family="Inter, Arial, sans-serif" font-size="20" font-weight="700">choose what comes next</text>
</svg>
